<svg xmlns="http://www.w3.org/2000/svg" xmlns:xlink="http://www.w3.org/1999/xlink" width="200" zoomAndPan="magnify" viewBox="0 0 150 89.999999" height="120" preserveAspectRatio="xMidYMid meet" version="1.0"><defs><filter x="0%" y="0%" width="100%" height="100%" id="id1"><feColorMatrix values="0 0 0 0 1 0 0 0 0 1 0 0 0 0 1 0 0 0 1 0" color-interpolation-filters="sRGB"/></filter><clipPath id="id2"><path d="M 31 8.09375 L 119 8.09375 L 119 81.59375 L 31 81.59375 Z M 31 8.09375 " clip-rule="nonzero"/></clipPath><mask id="id3"><g filter="url(#id1)"><rect x="-15" width="180" fill="rgb(0%, 0%, 0%)" y="-9" height="107.999999" fill-opacity="0.498"/></g></mask><clipPath id="id4"><path d="M 0 0 L 150 0 L 150 90 L 0 90 Z M 0 0 " clip-rule="nonzero"/></clipPath><clipPath id="id5"><rect x="0" width="150" y="0" height="90"/></clipPath></defs><rect x="-15" width="180" fill="rgb(100%, 100%, 100%)" y="-9" height="107.999999" fill-opacity="1"/><rect x="-15" width="180" fill="rgb(12.548828%, 12.548828%, 12.548828%)" y="-9" height="107.999999" fill-opacity="1"/><rect x="-15" width="180" fill="rgb(100%, 100%, 100%)" y="-9" height="107.999999" fill-opacity="1"/><rect x="-15" width="180" fill="rgb(12.548828%, 12.548828%, 12.548828%)" y="-9" height="107.999999" fill-opacity="1"/><g clip-path="url(#id2)"><path fill="rgb(100%, 100%, 100%)" d="M 61.226562 10.871094 C 57.046875 12.664062 53.285156 15.261719 50.128906 18.457031 C 46.972656 21.652344 44.421875 25.46875 42.65625 29.695312 C 41.40625 32.691406 40.558594 35.894531 40.164062 39.242188 C 39.945312 39.289062 39.730469 39.34375 39.515625 39.398438 C 33.667969 41.003906 30.234375 47.042969 31.839844 52.882812 L 33.773438 59.933594 C 35.113281 64.804688 39.53125 68 44.347656 68 C 44.617188 68 44.878906 67.992188 45.144531 67.96875 C 45.847656 67.921875 46.554688 67.804688 47.261719 67.609375 C 47.796875 67.460938 48.316406 67.277344 48.808594 67.058594 C 49.296875 66.839844 49.527344 66.277344 49.339844 65.777344 C 46.34375 57.699219 44.621094 49.441406 44.621094 43.496094 L 44.621094 43.441406 C 44.621094 42.039062 44.714844 40.652344 44.898438 39.296875 C 45.257812 36.5625 45.976562 33.953125 47 31.5 C 48.53125 27.832031 50.746094 24.53125 53.476562 21.757812 C 56.214844 18.980469 59.464844 16.738281 63.078125 15.191406 C 66.6875 13.640625 70.652344 12.789062 74.824219 12.789062 C 78.992188 12.789062 82.953125 13.640625 86.5625 15.191406 C 90.171875 16.738281 93.421875 18.980469 96.164062 21.757812 C 98.898438 24.53125 101.109375 27.832031 102.640625 31.5 C 103.664062 33.953125 104.378906 36.5625 104.742188 39.296875 C 104.921875 40.652344 105.019531 42.039062 105.019531 43.441406 L 105.019531 43.539062 C 105.019531 49.484375 103.289062 57.703125 100.308594 65.765625 C 100.121094 66.269531 100.355469 66.839844 100.847656 67.050781 C 100.851562 67.050781 100.855469 67.050781 100.859375 67.054688 C 101.09375 67.15625 101.332031 67.25 101.578125 67.335938 C 101.558594 67.351562 101.539062 67.367188 101.523438 67.378906 C 100.617188 68.167969 99.644531 68.914062 98.613281 69.621094 C 98.609375 69.625 98.601562 69.628906 98.59375 69.632812 C 98.078125 69.984375 97.546875 70.328125 97.003906 70.65625 C 96.449219 70.988281 95.886719 71.3125 95.308594 71.617188 C 90.769531 74.050781 85.621094 75.550781 81.089844 75.628906 C 80.542969 73.644531 78.722656 72.183594 76.5625 72.183594 L 73.183594 72.183594 C 70.546875 72.183594 68.328125 74.339844 68.378906 76.976562 C 68.429688 79.53125 70.511719 81.585938 73.078125 81.585938 L 76.5625 81.585938 C 78.488281 81.585938 80.144531 80.425781 80.871094 78.769531 C 86.117188 78.726562 91.769531 77.058594 96.789062 74.382812 C 97.53125 73.984375 98.253906 73.558594 98.964844 73.117188 C 99.160156 72.996094 99.34375 72.875 99.535156 72.75 C 100.082031 72.402344 100.613281 72.039062 101.136719 71.660156 C 101.300781 71.542969 101.46875 71.425781 101.628906 71.304688 C 102.261719 70.832031 102.878906 70.34375 103.464844 69.839844 C 103.488281 69.820312 103.515625 69.800781 103.539062 69.78125 C 104.203125 69.203125 104.835938 68.609375 105.4375 67.992188 C 107.523438 67.96875 109.523438 67.34375 111.230469 66.246094 C 111.230469 66.246094 111.230469 66.246094 111.234375 66.246094 C 111.472656 66.089844 111.707031 65.925781 111.9375 65.75 C 111.953125 65.738281 111.96875 65.726562 111.984375 65.714844 C 112.195312 65.546875 112.40625 65.378906 112.605469 65.199219 C 112.636719 65.171875 112.664062 65.144531 112.695312 65.117188 C 112.878906 64.949219 113.058594 64.773438 113.234375 64.59375 C 113.277344 64.546875 113.320312 64.496094 113.359375 64.449219 C 113.515625 64.28125 113.667969 64.113281 113.8125 63.9375 C 113.871094 63.863281 113.921875 63.789062 113.976562 63.714844 C 114.101562 63.554688 114.226562 63.398438 114.339844 63.226562 C 114.410156 63.128906 114.46875 63.027344 114.53125 62.925781 C 114.628906 62.773438 114.726562 62.628906 114.8125 62.472656 C 114.886719 62.34375 114.949219 62.210938 115.015625 62.085938 C 115.085938 61.945312 115.164062 61.8125 115.230469 61.667969 C 115.308594 61.496094 115.378906 61.316406 115.449219 61.140625 C 115.492188 61.03125 115.539062 60.929688 115.582031 60.824219 C 115.6875 60.535156 115.78125 60.238281 115.867188 59.933594 L 117.804688 52.882812 C 119.40625 47.042969 115.96875 41.003906 110.128906 39.398438 C 109.910156 39.34375 109.695312 39.289062 109.472656 39.242188 C 109.082031 35.894531 108.230469 32.691406 106.984375 29.695312 C 105.214844 25.46875 102.660156 21.652344 99.511719 18.457031 C 96.359375 15.261719 92.59375 12.664062 88.410156 10.871094 C 84.238281 9.078125 79.640625 8.089844 74.824219 8.089844 C 70.003906 8.089844 65.40625 9.078125 61.226562 10.871094 " fill-opacity="1" fill-rule="nonzero"/></g><g mask="url(#id3)"><g transform="matrix(1, 0, 0, 1, 0, -0.00000000000000949)"><g clip-path="url(#id5)"><g clip-path="url(#id4)"><rect x="-33" width="216" fill="rgb(0.389099%, 0.389099%, 0.389099%)" height="129.599999" y="-19.8" fill-opacity="1"/></g></g></g></g></svg>
