<svg xmlns="http://www.w3.org/2000/svg" xmlns:xlink="http://www.w3.org/1999/xlink" width="200" zoomAndPan="magnify" viewBox="0 0 150 89.999999" height="120" preserveAspectRatio="xMidYMid meet" version="1.0"><defs><filter x="0%" y="0%" width="100%" height="100%" id="id1"><feColorMatrix values="0 0 0 0 1 0 0 0 0 1 0 0 0 0 1 0 0 0 1 0" color-interpolation-filters="sRGB"/></filter><clipPath id="id2"><path d="M 37.535156 13.902344 L 52 13.902344 L 52 75 L 37.535156 75 Z M 37.535156 13.902344 " clip-rule="nonzero"/></clipPath><clipPath id="id3"><path d="M 61 46 L 112.535156 46 L 112.535156 76.152344 L 61 76.152344 Z M 61 46 " clip-rule="nonzero"/></clipPath><clipPath id="id4"><path d="M 55 13.902344 L 112 13.902344 L 112 55 L 55 55 Z M 55 13.902344 " clip-rule="nonzero"/></clipPath><mask id="id5"><g filter="url(#id1)"><rect x="-15" width="180" fill="rgb(0%, 0%, 0%)" y="-9" height="107.999999" fill-opacity="0.498"/></g></mask><clipPath id="id6"><path d="M 0 0 L 150 0 L 150 90 L 0 90 Z M 0 0 " clip-rule="nonzero"/></clipPath><clipPath id="id7"><rect x="0" width="150" y="0" height="90"/></clipPath></defs><rect x="-15" width="180" fill="rgb(100%, 100%, 100%)" y="-9" height="107.999999" fill-opacity="1"/><rect x="-15" width="180" fill="rgb(83.139038%, 29.798889%, 23.919678%)" y="-9" height="107.999999" fill-opacity="1"/><rect x="-15" width="180" fill="rgb(100%, 100%, 100%)" y="-9" height="107.999999" fill-opacity="1"/><rect x="-15" width="180" fill="rgb(83.139038%, 29.798889%, 23.919678%)" y="-9" height="107.999999" fill-opacity="1"/><g clip-path="url(#id2)"><path fill="rgb(100%, 100%, 100%)" d="M 41.835938 60.570312 C 41.835938 61.144531 41.371094 61.613281 40.792969 61.613281 L 37.535156 61.613281 L 44.660156 74.964844 L 51.785156 61.613281 L 48.523438 61.613281 C 47.949219 61.613281 47.484375 61.144531 47.484375 60.570312 L 47.484375 13.917969 L 41.835938 13.917969 Z M 41.835938 60.570312 " fill-opacity="1" fill-rule="evenodd"/></g><g clip-path="url(#id3)"><path fill="rgb(100%, 100%, 100%)" d="M 107.597656 48.097656 C 107.597656 60.699219 97.34375 70.953125 84.742188 70.953125 C 75.890625 70.953125 67.84375 65.785156 64.09375 57.902344 L 61.066406 63.125 C 66.25 71.285156 75.054688 76.136719 84.742188 76.136719 C 98.820312 76.136719 110.691406 65.714844 112.535156 51.824219 L 108.601562 46.945312 L 107.546875 46.601562 C 107.582031 47.101562 107.597656 47.601562 107.597656 48.097656 Z M 107.597656 48.097656 " fill-opacity="1" fill-rule="evenodd"/></g><path fill="rgb(100%, 100%, 100%)" d="M 89.144531 49.453125 C 90.921875 51.058594 91.726562 53.007812 91.453125 55.140625 C 91.175781 58.066406 88.429688 60.0625 85.53125 60.550781 L 85.53125 63.714844 C 85.53125 64.289062 85.066406 64.757812 84.492188 64.757812 C 83.914062 64.757812 83.449219 64.289062 83.449219 63.714844 L 83.449219 60.632812 C 80.628906 60.359375 77.761719 58.425781 77.804688 53.722656 C 77.8125 53.148438 78.28125 52.691406 78.859375 52.691406 C 79.433594 52.695312 79.894531 53.167969 79.890625 53.742188 C 79.847656 57.921875 82.671875 58.511719 83.886719 58.574219 C 86.3125 58.691406 89.175781 57.164062 89.378906 54.929688 C 89.378906 54.917969 89.382812 54.902344 89.382812 54.890625 C 89.753906 52.046875 87.050781 50.25 85.265625 49.382812 L 80.195312 49.292969 L 75.582031 54.730469 C 75.292969 55.070312 74.824219 55.1875 74.40625 55.027344 L 67.347656 52.28125 L 65.390625 55.65625 C 68.488281 63.578125 76.203125 68.867188 84.742188 68.867188 C 96.195312 68.867188 105.511719 59.550781 105.511719 48.097656 C 105.511719 47.367188 105.472656 46.632812 105.394531 45.898438 L 98.726562 43.722656 L 92.707031 49.234375 C 92.507812 49.410156 92.253906 49.515625 91.984375 49.503906 Z M 89.144531 49.453125 " fill-opacity="1" fill-rule="evenodd"/><path fill="rgb(100%, 100%, 100%)" d="M 85.160156 26.339844 L 85.160156 29.480469 C 87.992188 29.925781 90.949219 32.285156 90.796875 36.460938 C 90.777344 37.035156 90.300781 37.492188 89.71875 37.464844 C 89.144531 37.445312 88.691406 36.960938 88.714844 36.386719 C 88.820312 33.445312 86.820312 31.828125 84.792969 31.53125 C 82.628906 31.214844 80.066406 32.351562 79.21875 35.605469 C 78.640625 37.824219 80.027344 39.363281 83.859375 40.757812 C 84.09375 40.84375 84.449219 40.980469 84.867188 41.167969 L 90.726562 41.273438 L 96.890625 35.632812 C 97.167969 35.378906 97.5625 35.292969 97.917969 35.410156 L 104.140625 37.441406 C 102.058594 28.066406 93.625 21.1875 83.863281 21.1875 C 72.414062 21.1875 63.09375 30.503906 63.09375 41.957031 C 63.09375 43.609375 63.285156 45.234375 63.667969 46.820312 L 65.113281 44.320312 C 65.371094 43.878906 65.914062 43.6875 66.390625 43.875 L 73.597656 46.675781 L 78.050781 41.429688 C 78.25 41.191406 78.554688 41.054688 78.863281 41.0625 L 79.738281 41.078125 C 77.972656 39.878906 76.441406 37.988281 77.199219 35.082031 C 78.113281 31.578125 80.605469 29.851562 83.074219 29.476562 L 83.074219 26.339844 C 83.074219 25.761719 83.539062 25.296875 84.117188 25.296875 C 84.691406 25.296875 85.160156 25.761719 85.160156 26.339844 Z M 85.160156 26.339844 " fill-opacity="1" fill-rule="evenodd"/><g clip-path="url(#id4)"><path fill="rgb(100%, 100%, 100%)" d="M 98.949219 24.789062 C 102.914062 28.277344 105.546875 33.011719 106.40625 38.179688 L 108.664062 38.917969 C 108.859375 38.980469 109.027344 39.097656 109.152344 39.257812 L 111.894531 42.660156 C 111.902344 42.421875 111.90625 42.191406 111.90625 41.957031 C 111.90625 26.496094 99.328125 13.917969 83.863281 13.917969 C 68.40625 13.917969 55.828125 26.496094 55.828125 41.957031 C 55.828125 46.480469 56.914062 50.921875 58.988281 54.902344 L 62.222656 49.3125 C 61.417969 46.949219 61.011719 44.476562 61.011719 41.957031 C 61.011719 29.355469 71.261719 19.101562 83.863281 19.101562 C 89.421875 19.101562 94.78125 21.121094 98.949219 24.789062 Z M 98.949219 24.789062 " fill-opacity="1" fill-rule="evenodd"/></g><g mask="url(#id5)"><g transform="matrix(1, 0, 0, 1, 0, -0.00000000000000949)"><g clip-path="url(#id7)"><g clip-path="url(#id6)"><rect x="-33" width="216" fill="rgb(0.389099%, 0.389099%, 0.389099%)" height="129.599999" y="-19.8" fill-opacity="1"/></g></g></g></g></svg>
