<svg xmlns="http://www.w3.org/2000/svg" xmlns:xlink="http://www.w3.org/1999/xlink" width="200" zoomAndPan="magnify" viewBox="0 0 150 89.999999" height="120" preserveAspectRatio="xMidYMid meet" version="1.0"><defs><filter x="0%" y="0%" width="100%" height="100%" id="id1"><feColorMatrix values="0 0 0 0 1 0 0 0 0 1 0 0 0 0 1 0 0 0 1 0" color-interpolation-filters="sRGB"/></filter><clipPath id="id2"><path d="M 73 10.726562 L 77 10.726562 L 77 20 L 73 20 Z M 73 10.726562 " clip-rule="nonzero"/></clipPath><clipPath id="id3"><path d="M 45.738281 37 L 55 37 L 55 42 L 45.738281 42 Z M 45.738281 37 " clip-rule="nonzero"/></clipPath><clipPath id="id4"><path d="M 70 76 L 80 76 L 80 78.976562 L 70 78.976562 Z M 70 76 " clip-rule="nonzero"/></clipPath><clipPath id="id5"><path d="M 95.238281 37.925781 L 104.238281 37.925781 L 104.238281 41.921875 L 95.238281 41.921875 Z M 95.238281 37.925781 " clip-rule="nonzero"/></clipPath><mask id="id6"><g filter="url(#id1)"><rect x="-15" width="180" fill="rgb(0%, 0%, 0%)" y="-9" height="107.999999" fill-opacity="0.498"/></g></mask><clipPath id="id7"><path d="M 0 0 L 150 0 L 150 90 L 0 90 Z M 0 0 " clip-rule="nonzero"/></clipPath><clipPath id="id8"><rect x="0" width="150" y="0" height="90"/></clipPath></defs><rect x="-15" width="180" fill="rgb(100%, 100%, 100%)" y="-9" height="107.999999" fill-opacity="1"/><rect x="-15" width="180" fill="rgb(48.239136%, 60.389709%, 21.958923%)" y="-9" height="107.999999" fill-opacity="1"/><rect x="-15" width="180" fill="rgb(100%, 100%, 100%)" y="-9" height="107.999999" fill-opacity="1"/><rect x="-15" width="180" fill="rgb(48.239136%, 60.389709%, 21.958923%)" y="-9" height="107.999999" fill-opacity="1"/><path fill="rgb(100%, 100%, 100%)" d="M 90.753906 26.921875 L 95.671875 22.019531 C 96.433594 21.265625 96.433594 20.035156 95.671875 19.277344 C 94.910156 18.515625 93.675781 18.515625 92.914062 19.277344 L 88.0625 24.105469 C 89.042969 24.953125 89.9375 25.898438 90.753906 26.921875 " fill-opacity="1" fill-rule="nonzero"/><g clip-path="url(#id2)"><path fill="rgb(100%, 100%, 100%)" d="M 74.988281 19.160156 C 75.007812 19.160156 75.023438 19.160156 75.042969 19.160156 C 75.6875 19.160156 76.316406 19.199219 76.941406 19.265625 L 76.941406 12.683594 C 76.941406 11.613281 76.066406 10.746094 74.988281 10.746094 C 73.910156 10.746094 73.042969 11.613281 73.042969 12.683594 L 73.042969 19.265625 C 73.664062 19.199219 74.292969 19.160156 74.933594 19.160156 C 74.953125 19.160156 74.972656 19.160156 74.988281 19.160156 " fill-opacity="1" fill-rule="nonzero"/></g><path fill="rgb(100%, 100%, 100%)" d="M 59.226562 26.921875 C 60.039062 25.902344 60.929688 24.953125 61.910156 24.105469 L 57.0625 19.277344 C 56.300781 18.515625 55.066406 18.515625 54.304688 19.277344 C 53.542969 20.035156 53.542969 21.265625 54.304688 22.019531 L 59.226562 26.921875 " fill-opacity="1" fill-rule="nonzero"/><g clip-path="url(#id3)"><path fill="rgb(100%, 100%, 100%)" d="M 54.433594 40.695312 C 54.433594 39.757812 54.507812 38.839844 54.621094 37.933594 L 47.6875 37.933594 C 46.609375 37.933594 45.738281 38.804688 45.738281 39.875 C 45.738281 40.949219 46.609375 41.820312 47.6875 41.820312 L 54.457031 41.820312 C 54.445312 41.449219 54.433594 41.078125 54.433594 40.695312 " fill-opacity="1" fill-rule="nonzero"/></g><path fill="rgb(100%, 100%, 100%)" d="M 54.304688 57.726562 C 53.542969 58.484375 53.542969 59.714844 54.304688 60.476562 C 55.066406 61.234375 56.300781 61.234375 57.0625 60.476562 L 60.632812 56.917969 C 59.828125 56.011719 58.988281 55.011719 58.199219 53.851562 L 54.304688 57.726562 " fill-opacity="1" fill-rule="nonzero"/><g clip-path="url(#id4)"><path fill="rgb(100%, 100%, 100%)" d="M 75.859375 76.9375 L 70.746094 76.9375 C 70.742188 76.996094 70.734375 77.046875 70.734375 77.105469 C 70.734375 78.128906 72.3125 78.960938 73.773438 78.960938 L 76.203125 78.960938 C 77.664062 78.960938 79.242188 78.128906 79.242188 77.105469 C 79.242188 77.046875 79.234375 76.996094 79.234375 76.9375 L 75.859375 76.9375 " fill-opacity="1" fill-rule="nonzero"/></g><path fill="rgb(100%, 100%, 100%)" d="M 79.957031 72.21875 L 70.023438 72.21875 C 68.996094 72.21875 68.164062 73.050781 68.164062 74.074219 C 68.164062 75.097656 68.996094 75.929688 70.023438 75.929688 L 79.957031 75.929688 C 80.980469 75.929688 81.816406 75.097656 81.816406 74.074219 C 81.816406 73.050781 80.980469 72.21875 79.957031 72.21875 " fill-opacity="1" fill-rule="nonzero"/><path fill="rgb(100%, 100%, 100%)" d="M 79.957031 67.542969 L 70.023438 67.542969 C 68.996094 67.542969 68.164062 68.371094 68.164062 69.394531 C 68.164062 70.417969 68.996094 71.25 70.023438 71.25 L 79.957031 71.25 C 80.980469 71.25 81.816406 70.417969 81.816406 69.394531 C 81.816406 68.371094 80.980469 67.542969 79.957031 67.542969 " fill-opacity="1" fill-rule="nonzero"/><path fill="rgb(100%, 100%, 100%)" d="M 73.988281 30.566406 C 71.734375 30.652344 70.199219 31.261719 69.027344 32.09375 C 67.863281 32.929688 67.042969 34.039062 66.457031 35.226562 C 65.28125 37.59375 65.183594 40.214844 65.191406 40.394531 C 65.191406 41.503906 64.285156 42.402344 63.175781 42.402344 C 62.066406 42.402344 61.164062 41.503906 61.164062 40.394531 C 61.164062 40.308594 61.167969 39.289062 61.433594 37.820312 C 61.707031 36.351562 62.234375 34.417969 63.355469 32.515625 C 64.101562 31.25 65.121094 29.996094 66.503906 28.964844 C 68.339844 27.585938 70.804688 26.660156 73.847656 26.558594 C 74.960938 26.519531 75.890625 27.386719 75.929688 28.492188 C 75.972656 29.597656 75.101562 30.527344 73.988281 30.566406 Z M 92.835938 40.695312 C 92.839844 36.667969 91.492188 32.941406 89.226562 29.960938 C 87.234375 27.339844 84.53125 25.285156 81.394531 24.078125 L 81.414062 23.992188 L 80.074219 23.601562 C 79.035156 23.300781 77.964844 23.09375 76.871094 22.984375 L 76.714844 22.964844 L 76.703125 22.964844 C 76.171875 22.914062 75.613281 22.875 75.03125 22.875 L 74.945312 22.875 C 74.367188 22.875 73.808594 22.914062 73.273438 22.964844 L 73.265625 22.964844 L 73.101562 22.984375 C 72.011719 23.09375 70.941406 23.300781 69.902344 23.601562 L 68.609375 23.980469 L 68.621094 24.066406 C 65.472656 25.269531 62.753906 27.332031 60.753906 29.960938 C 58.484375 32.941406 57.136719 36.667969 57.140625 40.695312 C 57.136719 43.582031 57.636719 45.960938 58.421875 47.925781 C 59.589844 50.875 61.378906 52.867188 62.8125 54.371094 C 63.53125 55.128906 64.160156 55.769531 64.59375 56.316406 C 65.03125 56.871094 65.242188 57.296875 65.304688 57.636719 C 65.617188 59.285156 65.648438 61.367188 65.648438 61.894531 L 65.648438 62.046875 C 65.648438 64.433594 67.589844 66.359375 69.980469 66.359375 L 79.996094 66.359375 C 82.390625 66.359375 84.328125 64.429688 84.332031 62.046875 L 84.332031 62.023438 L 84.328125 61.996094 L 84.328125 61.898438 C 84.324219 61.378906 84.359375 59.289062 84.675781 57.640625 C 84.714844 57.410156 84.820312 57.148438 85.019531 56.832031 C 85.363281 56.273438 86.011719 55.574219 86.8125 54.742188 C 88.011719 53.484375 89.542969 51.898438 90.753906 49.644531 C 91.972656 47.394531 92.84375 44.488281 92.835938 40.695312 " fill-opacity="1" fill-rule="nonzero"/><path fill="rgb(100%, 100%, 100%)" d="M 91.78125 53.851562 C 90.992188 55.015625 90.148438 56.011719 89.34375 56.917969 L 92.914062 60.476562 C 93.675781 61.234375 94.910156 61.234375 95.671875 60.476562 C 96.433594 59.714844 96.433594 58.484375 95.671875 57.726562 L 91.78125 53.851562 " fill-opacity="1" fill-rule="nonzero"/><g clip-path="url(#id5)"><path fill="rgb(100%, 100%, 100%)" d="M 102.289062 37.933594 L 95.359375 37.933594 C 95.46875 38.839844 95.542969 39.757812 95.542969 40.695312 C 95.542969 41.078125 95.535156 41.449219 95.519531 41.820312 L 102.289062 41.820312 C 103.367188 41.820312 104.242188 40.949219 104.242188 39.875 C 104.242188 38.804688 103.367188 37.933594 102.289062 37.933594 " fill-opacity="1" fill-rule="nonzero"/></g><g mask="url(#id6)"><g transform="matrix(1, 0, 0, 1, 0, -0.00000000000000949)"><g clip-path="url(#id8)"><g clip-path="url(#id7)"><rect x="-33" width="216" fill="rgb(0.389099%, 0.389099%, 0.389099%)" height="129.599999" y="-19.8" fill-opacity="1"/></g></g></g></g></svg>
