<?xml version="1.0" standalone="no"?>
<!DOCTYPE svg PUBLIC "-//W3C//DTD SVG 20010904//EN"
 "http://www.w3.org/TR/2001/REC-SVG-20010904/DTD/svg10.dtd">
<svg version="1.0" xmlns="http://www.w3.org/2000/svg"
 width="500.000000pt" height="500.000000pt" viewBox="0 0 500.000000 500.000000"
 preserveAspectRatio="xMidYMid meet">

<g transform="translate(0.000000,500.000000) scale(0.100000,-0.100000)"
fill="#000000" stroke="none">
<path d="M2320 4783 c-251 -18 -573 -105 -805 -218 -157 -77 -229 -120 -365
-216 -148 -104 -396 -352 -500 -499 -276 -394 -417 -798 -436 -1250 -20 -489
112 -967 379 -1365 74 -111 77 -115 158 -210 370 -432 828 -690 1405 -789 49
-9 159 -18 244 -22 389 -15 752 60 1095 227 256 124 415 238 620 444 364 363
562 758 656 1305 20 117 17 530 -5 650 -78 428 -213 743 -450 1053 -112 147
-331 362 -466 456 -465 328 -979 474 -1530 434z m390 -33 c227 -27 397 -66
575 -132 204 -75 509 -253 658 -384 257 -225 438 -457 576 -738 107 -217 172
-421 207 -656 28 -183 26 -517 -4 -695 -37 -226 -97 -415 -193 -614 -133 -272
-284 -477 -510 -686 -69 -64 -201 -170 -254 -203 -22 -14 -66 -42 -99 -63
-155 -101 -398 -203 -613 -258 -197 -51 -322 -65 -558 -65 -302 0 -531 41
-804 143 -86 32 -297 134 -348 168 -15 11 -67 45 -116 77 -194 128 -434 365
-573 565 -208 299 -326 594 -385 961 -31 191 -31 480 0 670 38 237 110 469
199 647 207 411 471 700 867 949 192 121 489 236 725 280 216 41 477 55 650
34z"/>
<path d="M2310 4574 c-381 -48 -704 -164 -965 -346 -42 -29 -88 -60 -102 -69
-84 -55 -345 -318 -406 -409 -9 -14 -39 -59 -68 -100 -248 -361 -383 -881
-340 -1310 39 -380 148 -694 344 -985 26 -38 55 -81 64 -95 31 -45 137 -164
218 -243 395 -387 954 -605 1500 -584 321 12 601 83 865 216 142 72 147 75
314 191 45 31 204 171 257 227 297 311 483 683 556 1113 25 148 25 501 0 655
-50 301 -166 591 -335 835 -321 467 -795 775 -1347 876 -111 20 -179 26 -330
29 -104 2 -206 1 -225 -1z m358 -114 c293 -26 605 -128 843 -277 171 -107 290
-203 414 -335 259 -275 424 -600 502 -989 24 -120 26 -156 27 -354 0 -199 -3
-233 -27 -353 -83 -415 -256 -741 -547 -1033 -340 -341 -750 -528 -1247 -571
-411 -36 -890 95 -1243 340 -428 296 -705 716 -817 1237 -26 123 -28 144 -28
380 1 234 2 258 28 380 84 400 261 727 547 1013 403 402 980 612 1548 562z"/>
<path d="M2420 4013 c0 -50 -19 -99 -51 -129 -17 -16 -44 -55 -60 -86 -16 -31
-50 -79 -77 -105 -65 -65 -70 -89 -34 -166 16 -34 33 -73 37 -87 11 -37 64
-100 84 -100 9 0 29 -13 44 -28 52 -54 26 -116 -55 -136 -42 -10 -75 -46 -92
-102 -15 -48 -69 -251 -84 -319 -8 -32 -76 -101 -178 -177 -81 -60 -122 -75
-162 -59 -34 14 -101 1 -122 -23 -9 -12 -5 -18 21 -32 l33 -17 -23 -16 c-76
-52 -111 -120 -111 -213 0 -53 -5 -75 -30 -121 -16 -31 -30 -63 -30 -71 0 -8
-20 -24 -45 -36 -55 -27 -69 -61 -36 -93 20 -20 23 -21 49 -7 19 11 30 28 37
57 8 31 20 48 46 66 152 103 199 111 594 103 171 -3 351 -8 400 -10 50 -3 186
-8 304 -11 117 -3 248 -10 290 -15 71 -9 141 -5 262 16 34 6 36 4 42 -23 7
-36 60 -89 94 -96 33 -6 63 23 63 61 0 39 -37 72 -81 72 -45 0 -110 43 -168
111 -50 59 -161 245 -161 271 0 10 14 24 30 33 45 23 40 52 -11 60 l-42 7 7
107 c4 58 12 110 16 115 6 6 17 3 29 -8 11 -10 31 -16 48 -14 22 2 29 9 31 30
7 58 -79 103 -111 58 -15 -21 -124 -73 -190 -90 -23 -6 -77 -23 -119 -38 -72
-25 -79 -25 -94 -10 -22 22 -90 192 -99 248 -8 50 -50 142 -74 164 -9 7 -42
21 -74 30 -94 27 -118 67 -77 133 13 22 31 35 58 42 32 9 42 18 58 53 30 67
25 149 -14 230 -25 51 -35 88 -41 155 -11 113 -20 134 -101 231 -18 20 -30 14
-30 -15z m240 -1212 c11 -30 30 -65 40 -79 11 -13 20 -28 20 -33 0 -4 -20 -17
-45 -28 -25 -11 -60 -30 -76 -42 -36 -25 -46 -19 -54 36 -6 37 -3 45 29 84 33
39 36 49 36 104 1 59 1 61 15 37 8 -14 24 -49 35 -79z m-360 42 c0 -36 42
-123 60 -123 15 0 29 -68 23 -106 -8 -49 -33 -62 -148 -74 -55 -6 -128 -15
-162 -19 -87 -10 -95 1 -29 38 31 18 79 51 107 73 51 40 60 54 110 186 13 34
27 62 31 62 5 0 8 -16 8 -37z"/>
<path d="M1347 1682 c6 -4 15 -20 19 -36 4 -16 14 -37 23 -46 9 -9 54 -65 100
-123 46 -59 87 -107 92 -107 5 0 9 21 9 46 0 47 -12 68 -95 165 -16 19 -43 52
-60 72 -24 30 -37 37 -65 37 -19 0 -30 -4 -23 -8z"/>
<path d="M1550 1683 c8 -3 22 -11 30 -18 12 -9 18 -8 33 7 16 17 15 18 -30 17
-27 0 -41 -3 -33 -6z"/>
<path d="M2773 1663 c-26 -5 -25 -1 -23 -168 1 -76 5 -104 17 -117 20 -22 56
-23 77 -2 20 19 21 31 1 14 -29 -24 -35 0 -35 141 0 76 -3 138 -7 138 -5 -1
-18 -4 -30 -6z"/>
<path d="M3352 1663 c-23 -5 -24 -5 -20 -140 3 -120 5 -136 22 -149 27 -19 50
-18 77 7 23 19 23 20 2 9 -36 -17 -45 15 -41 152 3 126 2 129 -40 121z"/>
<path d="M1757 1595 c19 -14 22 -25 22 -99 0 -64 -3 -87 -15 -97 -11 -9 -20
-10 -32 -2 -28 17 -26 49 5 78 l28 27 -40 -17 c-22 -9 -45 -19 -52 -22 -6 -2
-14 -15 -17 -28 -16 -64 52 -94 107 -47 10 9 17 11 17 4 0 -19 36 -33 62 -23
13 6 17 10 11 10 -10 1 -13 27 -13 94 0 50 -4 97 -8 104 -9 14 -56 33 -80 33
-13 0 -12 -3 5 -15z"/>
<path d="M2015 1600 c-19 -8 -19 -9 3 -9 23 -1 23 -2 20 -111 l-3 -110 48 0
c44 0 47 1 33 16 -22 21 -22 138 0 179 8 17 10 25 3 18 -10 -10 -15 -9 -23 2
-14 18 -56 26 -81 15z"/>
<path d="M2152 1601 c-10 -6 -9 -10 7 -14 20 -5 21 -12 21 -105 0 -71 -4 -102
-12 -105 -7 -3 14 -6 47 -6 45 0 56 2 43 10 -15 8 -18 25 -18 104 0 86 -2 95
-22 109 -25 18 -46 20 -66 7z"/>
<path d="M2388 1600 c20 -8 23 -16 20 -52 -3 -41 -5 -44 -61 -70 -55 -27 -58
-30 -55 -60 2 -22 11 -36 26 -44 27 -13 74 -4 80 15 3 8 0 11 -6 7 -20 -12
-42 6 -42 34 0 20 9 35 30 50 l30 21 0 -53 c0 -29 4 -58 8 -64 11 -17 40 -24
64 -15 18 6 19 9 5 14 -14 5 -17 22 -17 100 0 106 -3 112 -65 121 -32 5 -35 4
-17 -4z"/>
<path d="M2570 1599 c-58 -24 -55 -69 11 -129 57 -53 64 -89 19 -101 l-25 -7
27 -1 c61 -2 111 46 89 87 -6 11 -31 38 -56 60 -48 42 -57 74 -27 91 23 14 -3
14 -38 0z"/>
<path d="M3020 1599 c0 -5 -5 -7 -10 -4 -6 4 -18 1 -27 -7 -13 -10 -17 -10
-20 0 -3 7 -21 12 -46 11 -23 0 -36 -3 -29 -6 8 -3 12 -35 12 -108 0 -73 -4
-105 -12 -108 -7 -3 16 -5 52 -5 36 0 57 2 48 5 -44 11 -32 213 13 213 5 0 8
-9 6 -21 -3 -29 26 -47 47 -30 22 18 20 48 -3 61 -25 13 -31 13 -31 -1z"/>
<path d="M3150 1593 c-19 -10 -40 -29 -47 -43 -15 -30 -17 -99 -3 -134 10 -28
57 -56 94 -56 25 0 86 44 86 62 0 6 -8 4 -18 -5 -22 -20 -75 -22 -90 -4 -6 7
-14 32 -18 55 l-7 42 67 0 c63 0 66 1 66 24 0 58 -69 89 -130 59z m64 -5 c3
-7 7 -25 10 -40 6 -27 5 -28 -35 -28 -40 0 -41 1 -34 27 11 47 50 73 59 41z"/>
<path d="M3557 1600 c26 -11 31 -26 32 -117 1 -63 -1 -74 -20 -83 -49 -27 -63
44 -16 83 23 19 24 19 -70 -20 -17 -7 -26 -39 -18 -64 13 -39 68 -45 108 -11
10 9 17 11 17 4 0 -19 36 -33 62 -23 13 6 17 10 11 10 -10 1 -13 27 -13 94 0
50 -4 97 -8 104 -10 15 -57 33 -85 32 l-22 0 22 -9z"/>
<path d="M1682 1584 c-28 -19 -28 -40 -1 -54 15 -9 24 -8 35 1 17 14 17 29 0
51 -11 16 -15 16 -34 2z"/>
<path d="M1898 1588 c8 -8 12 -46 12 -103 0 -57 -4 -95 -12 -103 -9 -9 0 -12
43 -12 32 0 49 4 41 9 -10 6 -13 33 -12 97 1 49 1 97 1 107 -1 13 -10 17 -43
17 -33 0 -39 -3 -30 -12z"/>
<path d="M2316 1584 c-19 -19 -20 -36 -4 -52 16 -16 23 -15 42 3 12 13 13 21
4 40 -13 29 -21 31 -42 9z"/>
<path d="M2666 1591 c-4 -5 -2 -20 3 -32 8 -22 8 -22 13 9 4 30 -4 43 -16 23z"/>
<path d="M3486 1584 c-32 -32 -5 -75 33 -54 24 12 26 28 7 53 -16 21 -20 21
-40 1z"/>
<path d="M1361 1524 c0 -11 3 -14 6 -6 3 7 2 16 -1 19 -3 4 -6 -2 -5 -13z"/>
<path d="M1361 1420 c0 -15 -6 -31 -13 -38 -9 -9 -3 -12 27 -12 38 0 39 1 18
15 -12 8 -24 25 -26 38 -4 20 -4 20 -6 -3z"/>
<path d="M2531 1410 c-1 -29 3 -36 19 -36 16 0 17 2 6 16 -8 8 -16 24 -19 35
-3 12 -5 6 -6 -15z"/>
</g>
</svg>
